<?xml version="1.0" encoding="UTF-8" standalone="no"?>
<svg width="18px" height="18px" viewBox="0 0 18 18" version="1.1" xmlns="http://www.w3.org/2000/svg" xmlns:xlink="http://www.w3.org/1999/xlink">
    <!-- Generator: Sketch 41 (35326) - http://www.bohemiancoding.com/sketch -->
    <title>block</title>
    <desc>Created with Sketch.</desc>
    <defs></defs>
    <g id="Web" stroke="none" stroke-width="1" fill="none" fill-rule="evenodd">
        <g id="Card-details" transform="translate(-416.000000, -575.000000)" fill="#333333">
            <g id="Group-4" transform="translate(306.000000, 361.000000)">
                <g id="Group-11" transform="translate(110.000000, 214.000000)">
                    <path d="M15.3801,2.6599664 C15.37344,2.6525861 15.37146,2.64304572 15.36426,2.63584543 C15.35724,2.62864515 15.34698,2.62648506 15.33996,2.61964479 C13.71204,1.00210008 11.47122,0 9.00036,0 C4.03758,0 0,4.0373815 0,9.00036001 C0,11.4727589 1.00296,13.7151086 2.6226,15.3429137 C2.62854,15.349934 2.63052,15.3580343 2.63664,15.3643346 C2.64276,15.3702748 2.65104,15.3724349 2.65734,15.3783751 C4.2858,16.9969999 6.5277,18 9.00036,18 C13.96278,18 18,13.9624385 18,9.00018001 C18,6.52886115 16.9983,4.28813153 15.3801,2.6599664 L15.3801,2.6599664 Z M9.00036,1.03864155 C11.0088,1.03864155 12.8403,1.79197168 14.24286,3.02340094 L3.02364,14.2425297 C1.79208,12.8411736 1.0386,11.0083403 1.0386,9.00036001 C1.0386,4.61016441 4.61016,1.03864155 9.00036,1.03864155 L9.00036,1.03864155 Z M9.00036,16.9617185 C6.99192,16.9617185 5.16024,16.2078483 3.75786,14.9771391 L14.97708,3.75765031 C16.2081,5.1600864 16.96158,6.99183967 16.96158,9.00054002 C16.96158,13.3907356 13.39002,16.9617185 9.00036,16.9617185 L9.00036,16.9617185 Z" id="block"></path>
                </g>
            </g>
        </g>
    </g>
</svg>