<?xml version="1.0" encoding="UTF-8" standalone="no"?>
<svg width="121px" height="35px" viewBox="0 0 121 35" version="1.1" xmlns="http://www.w3.org/2000/svg" xmlns:xlink="http://www.w3.org/1999/xlink">
    <!-- Generator: Sketch 48.2 (47327) - http://www.bohemiancoding.com/sketch -->
    <title>BMs logo</title>
    <desc>Created with Sketch.</desc>
    <defs>
        <polygon id="path-1" points="35.3937576 0.146113537 0.122927948 0.146113537 0.122927948 34.847131 35.3937576 34.847131 35.3937576 0.146113537"></polygon>
        <polygon id="path-3" points="4.14269389e-21 0.0979155998 4.14269389e-21 20.0948 8.09094553 20.0948 8.09094553 0.0979155998"></polygon>
        <polygon id="path-5" points="14.1051528 14.0978166 14.1051528 0.0322489083 0.0446956257 0.0322489083 0.0446956257 14.0978166"></polygon>
    </defs>
    <g id="web--Loged-in" stroke="none" stroke-width="1" fill="none" fill-rule="evenodd" transform="translate(-50.000000, -15.000000)">
        <g id="BMs-logo" transform="translate(50.000000, 15.000000)">
            <g id="Group-3" transform="translate(40.807860, 0.006725)">
                <mask id="mask-2" fill="white">
                    <use xlink:href="#path-1"></use>
                </mask>
                <g id="Clip-2"></g>
                <path d="M35.3937576,10.3148821 L33.4047183,6.92920524 L29.848321,8.61868122 L27.8591288,5.23208734 L24.3027314,6.92263319 L22.3130808,3.53680349 L18.7562249,5.22887773 L16.7667271,1.842131 L13.2098712,3.53175983 L11.220679,0.146082969 L7.66504585,1.83647598 L0.122927948,26.3564978 L9.27198908,29.1519127 C9.88242576,27.1732664 11.72581,25.7356681 13.9045218,25.7356681 C16.5820983,25.7356681 18.7528624,27.905821 18.7528624,30.5835502 C18.7528624,30.6171747 18.7511812,30.6483537 18.7507227,30.6810611 C18.7728843,31.1204716 18.7219891,31.5653843 18.5891725,32.0002096 L27.8933646,34.847131 L35.3937576,10.3148821 Z" id="Fill-1" fill="#D61920" mask="url(#mask-2)"></path>
            </g>
            <path d="M48.7757707,24.33819 C48.2970808,24.253976 47.9612948,23.8489541 47.9616004,23.3548275 L47.9612948,11.3524258 C47.9631288,10.79319 48.4008581,10.353321 48.9594825,10.353321 L57.632452,10.353321 C57.8583472,10.353321 58.0848537,10.3747183 58.3053996,10.4129279 C60.1703341,10.7419891 61.523107,12.3535175 61.523107,14.2441288 L61.523107,23.3548275 C61.523107,23.6244345 61.4168843,23.878452 61.2235437,24.0672074 C61.0347882,24.2510721 60.7868843,24.354238 60.5252249,24.354238 C60.4614913,24.3560721 60.4009672,24.3479716 60.3407489,24.33819 C59.8614476,24.253976 59.5265786,23.8489541 59.5274956,23.3548275 L59.5274956,14.2445873 C59.5274956,13.3237358 58.8664694,12.5410502 57.9590677,12.380417 C57.8525393,12.3616179 57.7441769,12.3515306 57.632452,12.3515306 L55.7426048,12.3515306 L55.7426048,23.3548275 C55.7426048,23.6247402 55.6342424,23.878452 55.4416659,24.0672074 C55.2526048,24.2522948 55.0042424,24.354238 54.742583,24.3534738 C54.6788493,24.354238 54.6184782,24.3488886 54.5579541,24.33819 C54.0783472,24.253976 53.7443952,23.8489541 53.7443952,23.3548275 L53.7443952,12.3506135 L49.9585873,12.3515306 L49.9585873,23.3548275 C49.9602686,23.6244345 49.8519061,23.8775349 49.6602467,24.0665961 C49.4699629,24.2522948 49.222059,24.354238 48.9603996,24.354238 C48.8978886,24.354238 48.8353777,24.3479716 48.7757707,24.33819" id="Fill-4" fill="#FEFEFE"></path>
            <path d="M63.1964585,29.5669301 C62.716393,29.4833275 62.3813712,29.0795284 62.3813712,28.5831092 C62.3813712,28.3119738 62.4831616,28.058262 62.6685546,27.872869 C62.8539476,27.688393 63.1064367,27.5850742 63.3792533,27.5850742 C64.219559,27.5850742 64.9484454,27.0420393 65.1905415,26.2336769 L66.2203668,22.8013843 L62.8489039,11.5353581 C62.6842969,11.0079127 62.9814148,10.4416463 63.5139039,10.2753581 C63.6639913,10.2353144 63.8088821,10.2302707 63.9530087,10.2556419 C64.3247118,10.3216681 64.6288603,10.5825633 64.7474629,10.9350087 L67.2546245,19.3388297 L69.7877686,10.9392882 C69.9135546,10.4657948 70.4203668,10.1648559 70.9435328,10.2556419 L71.0142969,10.2719956 C71.5544279,10.4407293 71.8518515,11.0079127 71.6869389,11.5365808 L68.217048,23.0991135 L67.1195153,26.7997904 C66.8370699,27.6504891 66.3499738,28.3414716 65.712179,28.8054891 C65.0242533,29.3147467 64.2172664,29.5825197 63.3792533,29.5825197 C63.3155197,29.5825197 63.255607,29.5782402 63.1964585,29.5669301" id="Fill-6" fill="#FEFEFE"></path>
            <g id="Group-10" transform="translate(0.000000, 4.133362)">
                <mask id="mask-4" fill="white">
                    <use xlink:href="#path-3"></use>
                </mask>
                <g id="Clip-9"></g>
                <path d="M2.07736463,18.0176179 L4.04515939,18.0176179 C5.13077074,18.0176179 6.01310699,17.1357402 6.01310699,16.0496703 L6.01310699,10.2769629 C6.01310699,9.31958297 5.32884934,8.50403712 4.38476638,8.33790175 C4.27395852,8.31925546 4.16070524,8.30733406 4.04515939,8.30733406 L2.0764476,8.30916812 L2.07736463,18.0176179 Z M0.847473799,20.0784913 C0.348303493,19.9910677 -1.52838428e-05,19.5713734 -1.52838428e-05,19.0564607 L-1.52838428e-05,1.13584934 C-0.00108515284,0.852639738 0.105901747,0.590521834 0.30000655,0.396722707 C0.492430131,0.203382096 0.755770742,0.0968537118 1.03913319,0.0979235808 C1.09935153,0.0979235808 1.15804148,0.104189956 1.2165786,0.113818777 C1.71574891,0.200936681 2.0764476,0.630565502 2.0764476,1.13676638 L2.0764476,6.23331659 L4.04515939,6.23331659 C4.27976638,6.23239956 4.5145262,6.2524214 4.74286681,6.29246507 C6.68345633,6.63451747 8.09140393,8.31069651 8.09094541,10.2769629 L8.09094541,16.0496703 C8.09140393,18.2809585 6.2764476,20.0946921 4.04515939,20.0946921 L1.03913319,20.0946921 C0.973565502,20.0956092 0.909067686,20.0907183 0.847473799,20.0784913 Z" id="Fill-8" fill="#FFFFFF" mask="url(#mask-4)"></path>
            </g>
            <path d="M15.1368428,12.3515 C15.0272576,12.3327009 14.9126288,12.3226135 14.7984585,12.3226135 C13.6949651,12.3226135 12.8292882,13.1885961 12.8292882,14.2914782 L12.8292882,20.3032249 C12.8292882,21.2619803 13.5094192,22.0769148 14.4458603,22.2432031 C14.5601834,22.2623079 14.6777162,22.2728537 14.7984585,22.2728537 C15.8834585,22.2728537 16.7667118,21.3906703 16.7676288,20.3032249 L16.7667118,14.2914782 C16.7667118,13.3330284 16.0809258,12.5196223 15.1368428,12.3515 M14.0868428,24.2889454 C12.1543537,23.9481157 10.7528253,22.2719367 10.7528253,20.3032249 L10.7528253,14.2904083 C10.7528253,13.2061725 11.1726725,12.1905611 11.9348777,11.4269803 C12.6986114,10.6655393 13.7143755,10.246762 14.7984585,10.246762 C15.032607,10.246762 15.2675197,10.2655611 15.4966245,10.3057576 C17.4367555,10.6481157 18.8442445,12.3226135 18.8442445,14.2914782 L18.8433275,20.3038362 C18.8433275,21.3840983 18.4198122,22.4006266 17.6499651,23.1680284 C16.8834803,23.9297751 15.8701616,24.3493166 14.7984585,24.3493166 C14.5601834,24.3509978 14.3200742,24.3292948 14.0868428,24.2889454" id="Fill-11" fill="#FFFFFF"></path>
            <path d="M25.8888122,12.3515 C25.7796856,12.3327009 25.6655153,12.3226135 25.5505808,12.3226135 C24.4463231,12.3226135 23.5840087,13.1885961 23.5840087,14.2914782 L23.5830917,20.3032249 C23.5840087,21.2610633 24.2616943,22.0769148 25.1987467,22.242286 C25.3127642,22.2604738 25.4309083,22.2719367 25.5505808,22.2719367 C26.0713013,22.2719367 26.5611485,22.0686616 26.9356026,21.6994039 C27.311738,21.3264782 27.5186812,20.8312817 27.5195983,20.3032249 L27.5195983,14.2904083 C27.5195983,13.3330284 26.8338122,12.5196223 25.8888122,12.3515 M24.8389651,24.2889454 C22.9081572,23.9465873 21.5060175,22.270714 21.5060175,20.3038362 L21.5060175,14.2914782 C21.5060175,12.0598843 23.3205153,10.2449279 25.5505808,10.2449279 C25.7850349,10.2449279 26.0196419,10.2649498 26.2485939,10.3057576 C28.1887249,10.6481157 29.596214,12.3226135 29.596214,14.2914782 L29.596214,20.3032249 C29.596214,21.386238 29.1722402,22.4006266 28.402393,23.1680284 C27.6365197,23.9290109 26.6239651,24.3493166 25.5505808,24.3493166 C25.312,24.3493166 25.0715852,24.3292948 24.8389651,24.2889454" id="Fill-13" fill="#FFFFFF"></path>
            <path d="M33.1059498,24.33281 C32.607238,24.2456921 32.2593777,23.8247751 32.2593777,23.3098624 L32.2593777,5.26927293 C32.2593777,4.98606332 32.3642249,4.72394541 32.5584825,4.53014629 C32.7512118,4.33665284 33.0140939,4.23012445 33.2973035,4.23134716 C33.3579803,4.23134716 33.4177402,4.23761354 33.4747489,4.24724236 C33.9739192,4.33436026 34.3359934,4.76383624 34.3359934,5.27018996 L34.3359934,15.9467183 L39.1199891,10.59019 C39.3611681,10.3279192 39.7194214,10.2080939 40.0799672,10.2719803 C40.2711681,10.3048406 40.4518231,10.3902773 40.6016048,10.5165218 C41.0269541,10.9073297 41.0567576,11.5604083 40.6740502,11.976893 L37.0716485,15.9921114 L40.8140502,22.8244476 C40.9474782,23.0572205 40.9804913,23.3327882 40.9056004,23.5949061 C40.8285699,23.8583996 40.6483734,24.0797096 40.3964956,24.2119148 C40.1949017,24.3289891 39.9488319,24.3691856 39.7059716,24.327155 C39.3947926,24.2727445 39.1325218,24.0919367 38.981976,23.8307358 L35.6155568,17.6510197 L34.3359934,19.0638581 L34.3359934,23.3098624 C34.3359934,23.5918493 34.2245742,23.85519 34.0252729,24.051893 C33.8276528,24.2438581 33.5701201,24.3491638 33.2973035,24.3491638 C33.2318886,24.3491638 33.1675437,24.3428974 33.1059498,24.33281" id="Fill-15" fill="#FFFFFF"></path>
            <path d="M78.9256878,24.320583 C77.7691594,24.1176135 76.8116266,23.445583 76.226714,22.4319585 C76.0934389,22.1971987 76.0587445,21.9086397 76.1316485,21.6393384 C76.2066921,21.3665218 76.3757314,21.1453646 76.6083515,21.011631 C76.8146834,20.8948624 77.0616703,20.8525262 77.3042249,20.8948624 C77.6149454,20.9506485 77.878286,21.1316092 78.0274563,21.3944913 C78.3002729,21.86019 78.7273035,22.1551681 79.2600983,22.2503865 C79.8390502,22.3423952 80.3648144,22.1832904 80.7968886,21.8094476 C81.1956441,21.437286 81.4056441,20.9061725 81.3523035,20.3927882 C81.323417,19.8396659 81.0559498,19.3638799 80.5985044,19.0491856 L77.8007969,17.0628974 C76.8833079,16.4214345 76.3051201,15.3989454 76.2099017,14.2572424 C76.1466266,13.0918493 76.5909279,11.9998188 77.4274127,11.2574825 C78.2591594,10.486107 79.3831332,10.1347314 80.5132205,10.2900153 L80.5147489,10.291238 C81.6926747,10.4983341 82.656321,11.1679192 83.1996616,12.1341638 C83.3321725,12.3640328 83.3664083,12.6518275 83.2959498,12.9196004 C83.2230459,13.1893603 83.0497271,13.4192293 82.8177183,13.5523515 C82.6113865,13.6709541 82.3651638,13.7106921 82.1230677,13.6675917 C81.8123472,13.6130284 81.548548,13.4323734 81.3990721,13.1697969 C81.1623253,12.7514782 80.7339192,12.4598624 80.2199236,12.3684651 C79.6881987,12.2807358 79.1945306,12.4279192 78.8133515,12.7815873 C78.4549454,13.1124825 78.2582424,13.6115 78.2865175,14.1184651 C78.3132642,14.6086179 78.5891376,15.0859323 79.0073035,15.3659323 L81.8056223,17.3219585 C82.7755349,18.0080502 83.3664083,19.0766965 83.427238,20.2512598 C83.5197052,21.4210852 83.0647052,22.5470459 82.1788537,23.3372205 C81.3306004,24.1270895 80.1707096,24.4909978 79.0024127,24.33281 L78.9256878,24.320583 Z" id="Fill-17" fill="#FFFFFF"></path>
            <path d="M86.9623908,24.3510284 C86.463679,24.2623821 86.1020633,23.8310721 86.1020633,23.325941 L86.1020633,5.28565721 C86.1020633,5.00397598 86.2133297,4.74185808 86.4137009,4.54362664 C86.6111681,4.35318996 86.8687009,4.24650873 87.1402948,4.24650873 C87.2070852,4.24712009 87.2703603,4.25201092 87.3319541,4.26393231 C87.8317358,4.35166157 88.1794432,4.77196725 88.1794432,5.28565721 L88.1794432,10.380679 L90.1486135,10.380679 C90.3876528,10.380679 90.6271507,10.4016179 90.8593122,10.4433428 C92.7910371,10.783714 94.1934825,12.4583646 94.1918013,14.425548 L94.1934825,23.325941 C94.1934825,23.9097838 93.737107,24.3650895 93.1550983,24.3650895 C93.0933515,24.3650895 93.0349672,24.3597402 92.9770415,24.3491943 C92.4777183,24.2623821 92.1164083,23.8310721 92.1164083,23.3244127 L92.1164083,14.425548 C92.1173253,13.4684738 91.4367358,12.6526223 90.5001419,12.4878624 C90.3859716,12.4673821 90.2681332,12.4577533 90.1469323,12.4577533 L88.1794432,12.4577533 L88.1794432,23.325941 C88.1794432,23.9097838 87.7229148,24.3650895 87.1402948,24.3650895 C87.0806878,24.3650895 87.0207751,24.36081 86.9623908,24.3510284" id="Fill-19" fill="#FFFFFF"></path>
            <path d="M101.234718,12.3670131 C101.123146,12.3485197 101.011421,12.3384323 100.895111,12.3372096 C100.364762,12.3372096 99.8697183,12.5417074 99.5006135,12.9112707 C99.1305917,13.2808341 98.9273166,13.7751135 98.9273166,14.3056157 L98.9273166,20.3199607 C98.9273166,21.2768821 99.6069891,22.0910524 100.543124,22.2558122 C100.657753,22.2769039 100.775133,22.2877555 100.895111,22.2877555 C101.414762,22.2877555 101.907207,22.084786 102.280133,21.7152227 C102.657186,21.3410742 102.863823,20.8471004 102.863823,20.3190437 L102.863823,14.3056157 C102.863823,13.3485415 102.178954,12.53269 101.234718,12.3670131 M100.183954,24.3029301 C98.2531463,23.9624061 96.849631,22.2877555 96.8511594,20.3199607 L96.8511594,14.3056157 C96.849631,12.0744803 98.6656572,10.2607467 100.896028,10.2607467 C101.129413,10.2607467 101.364784,10.2792402 101.593124,10.3206594 C103.533867,10.662559 104.941203,12.3384323 104.940897,14.3056157 L104.939522,20.3199607 C104.940897,21.4002227 104.517688,22.4161397 103.746771,23.1835415 C102.980592,23.9449825 101.968037,24.3649825 100.896028,24.3649825 C100.656531,24.3649825 100.418103,24.3429738 100.183954,24.3029301" id="Fill-21" fill="#FFFFFF"></path>
            <g id="Group-25" transform="translate(106.834061, 10.246900)">
                <mask id="mask-6" fill="white">
                    <use xlink:href="#path-5"></use>
                </mask>
                <g id="Clip-24"></g>
                <path d="M14.0732402,1.28995633 C14.1398777,1.0249345 14.1015153,0.752882096 13.966559,0.528973799 C13.8248777,0.293755459 13.5849214,0.124868996 13.2931528,0.0522707424 C13.231559,0.0409606987 13.1673668,0.0365283843 13.1043974,0.0365283843 C12.6290699,0.0365283843 12.2173231,0.356572052 12.1016245,0.813558952 C12.0907729,0.857117904 10.9774978,5.36875546 10.1026507,8.79600437 L10.083393,8.87272926 L10.0642882,8.79508734 C9.21251965,5.36936681 8.07219214,0.863384279 8.05920087,0.816768559 C7.973,0.415567686 7.66671179,0.120131004 7.26062009,0.0493668122 C7.19872052,0.0385152838 7.13590393,0.0322489083 7.07522707,0.0322489083 C6.61778166,0.0322489083 6.22193013,0.346026201 6.0889607,0.813558952 C6.07780349,0.857117904 4.96284716,5.36875546 4.08784716,8.79600437 L4.06858952,8.87272926 L4.04948472,8.79508734 C3.19832751,5.36875546 2.05708297,0.857117904 2.04577293,0.813558952 C1.9470393,0.420152838 1.62821834,0.120131004 1.23450655,0.0513537118 C1.09664629,0.0284279476 0.956646288,0.0320960699 0.821231441,0.0669432314 C0.276973799,0.202816594 -0.0591179039,0.752882096 0.07369869,1.28995633 L3.08369869,13.3220087 C3.19741048,13.7219869 3.51072926,14.0148253 3.89955022,14.0823799 C3.95273799,14.0927729 4.00989956,14.0968996 4.06736681,14.0968996 C4.55767249,14.0968996 4.95275983,13.7844978 5.05195197,13.3204803 C5.06280349,13.2737118 6.20527074,8.76268559 7.05719214,5.33329694 L7.07553275,5.25748908 L7.0960131,5.33329694 C7.97926638,8.79462882 9.09590393,13.3210917 9.09666812,13.3232314 C9.21160262,13.7219869 9.52415721,14.0148253 9.91297817,14.0823799 C9.96845852,14.0927729 10.0250087,14.0978166 10.0817118,14.0978166 C10.5707948,14.0978166 10.9658821,13.7844978 11.0661441,13.3187991 L14.0732402,1.28995633 Z" id="Fill-23" fill="#FFFFFF" mask="url(#mask-6)"></path>
            </g>
        </g>
    </g>
</svg>