<?xml version="1.0" encoding="UTF-8"?>
<svg width="118px" height="35px" viewBox="0 0 118 35" version="1.1" xmlns="http://www.w3.org/2000/svg" xmlns:xlink="http://www.w3.org/1999/xlink">
    <!-- Generator: Sketch 41 (35326) - http://www.bohemiancoding.com/sketch -->
    <title>Page 1</title>
    <desc>Created with Sketch.</desc>
    <defs>
        <polygon id="path-1" points="1.21165942e-20 0.0960149545 1.21165942e-20 19.5017001 7.88814576 19.5017001 7.88814576 0.0960149545 0 0.0960149545"></polygon>
    </defs>
    <g id="Page-1" stroke="none" stroke-width="1" fill="none" fill-rule="evenodd">
        <g id="DELHI-I-LOVE-U-Copy-3" transform="translate(-46.000000, -30.000000)">
            <g id="Page-1" transform="translate(46.000000, 30.000000)">
                <g id="Group-26" transform="translate(0.000000, 13.431759)"></g>
                <g id="Group-2" transform="translate(0.000000, 0.710526)">
                    <g id="Group-3" transform="translate(39.785085, 0.005191)" fill="#D71920">
                        <path d="M34.5062151,10.0106617 L32.5676235,6.72475024 L29.0997647,8.36525879 L27.1602791,5.0793473 L23.6930164,6.71985585 L21.7535308,3.43379605 L18.2862681,5.07460123 L16.3467824,1.78839311 L12.8789237,3.42904998 L10.9400341,0.143138487 L7.47262239,1.78379536 L0.11983208,25.5768795 L9.03884347,28.2908896 C9.63442768,26.3706596 11.4314619,24.9753152 13.5561642,24.9753152 C16.166632,24.9753152 18.2829899,27.0818284 18.2829899,29.6803014 C18.2829899,29.7117442 18.2812018,29.7428902 18.2804568,29.7740363 C18.3023609,30.1998477 18.2528903,30.6311468 18.1226575,31.0551784 L27.1938059,33.8157594 L34.5062151,10.0106617 Z" id="Fill-1"></path>
                    </g>
                    <g id="Group-8" transform="translate(46.639444, 9.793959)" fill="#FEFEFE">
                        <path d="M0.913998997,13.8234611 C0.447157533,13.7417397 0.119489362,13.3492991 0.120085393,12.8689079 L0.119489362,1.22294343 C0.120681424,0.679963431 0.547886811,0.254152017 1.09325539,0.253558758 L9.54944853,0.253558758 C9.76893703,0.253558758 9.98887256,0.273284609 10.2043378,0.310956535 C12.0220841,0.629833073 13.3421443,2.19410789 13.3415482,4.02876034 L13.3421443,12.8689079 C13.3421443,13.1314248 13.2379878,13.3773306 13.0493439,13.5604992 C12.8648723,13.7401082 12.6233306,13.8390341 12.3683783,13.8388858 C12.306689,13.8396274 12.2467879,13.8335465 12.1885258,13.8234611 C11.7210883,13.7417397 11.3946122,13.3492991 11.3952083,12.8689079 L11.3952083,4.02920529 C11.3952083,3.13531278 10.7519415,2.3752001 9.86668615,2.21932138 C9.76312573,2.20137531 9.65718117,2.19188317 9.54944853,2.19188317 L7.70488087,2.1921798 L7.70488087,12.8692045 C7.70488087,13.1317215 7.60072441,13.3773306 7.41267655,13.5604992 C7.22760885,13.7405532 6.9860672,13.8390341 6.73111484,13.8382925 C6.6694256,13.8390341 6.60952446,13.8338431 6.55126241,13.8237577 C6.08322888,13.7417397 5.75734881,13.3492991 5.75734881,12.8689079 L5.75734881,2.19158654 L2.06702142,2.19188317 L2.06702142,12.8692045 C2.06761745,13.1311282 1.96346099,13.3770339 1.77541314,13.5599059 C1.59034544,13.7405532 1.34880378,13.8390341 1.09385142,13.8388858 C1.03216219,13.8390341 0.97226105,13.8335465 0.913998997,13.8234611" id="Fill-4"></path>
                        <path d="M14.9719321,18.8983886 C14.5044946,18.816074 14.1780185,18.4242266 14.1780185,17.9436871 C14.1780185,17.6799836 14.2775557,17.4340779 14.4580042,17.2541722 C14.6390486,17.0736732 14.8858056,16.9748957 15.1517845,16.9748957 C15.9707314,16.9748957 16.6803066,16.4471921 16.916633,15.663794 L17.9212436,12.3324982 L14.6342804,1.40022396 C14.4730539,0.887203518 14.7630231,0.338142614 15.2821663,0.17633131 C15.42879,0.138956013 15.5703474,0.133913315 15.7105638,0.15853355 C16.0720567,0.222012228 16.3688803,0.474888739 16.4846594,0.817643939 L18.9294305,8.97198444 L21.3990859,0.821351805 C21.5212723,0.362021276 22.0165743,0.0693964336 22.5252869,0.15853355 L22.5951716,0.173958275 C23.1208711,0.337549355 23.4112873,0.887648462 23.2506569,1.40126216 L19.8681797,12.6220084 L18.7978566,16.2125583 C18.5218941,17.0365946 18.0476023,17.7081634 17.4253457,18.158595 C16.7548105,18.6524829 15.9679003,18.9138133 15.1511885,18.9132201 C15.0889032,18.9138133 15.0301941,18.9081774 14.9719321,18.8983886" id="Fill-6"></path>
                    </g>
                    <g id="Group-11" transform="translate(0.000000, 4.009687)">
                        <mask id="mask-2" fill="white">
                            <use xlink:href="#path-1"></use>
                        </mask>
                        <g id="Clip-10"></g>
                        <path d="M2.02573136,17.4860622 L3.94465392,17.4860622 C5.00171531,17.4860622 5.86312945,16.6292483 5.86312945,15.5760659 L5.86312945,9.97466576 C5.86312945,9.04547436 5.19482943,8.2542156 4.27470621,8.09225598 C4.16622853,8.07356833 4.05611176,8.06392788 3.94405788,8.06392788 L2.02498632,8.06452114 L2.02573136,17.4860622 Z M0.825771474,19.4859372 C0.339708002,19.4008045 -0.000625832796,18.9933842 -2.98015619e-05,18.494157 L-2.98015619e-05,1.10352046 C-0.00122186403,0.828396752 0.103083602,0.573443836 0.292472527,0.387308927 C0.480073358,0.198652668 0.736217781,0.0952773434 1.01277627,0.0960189167 C1.07103833,0.0960189167 1.12900236,0.101358245 1.18592335,0.111295328 C1.67213583,0.196872892 2.02439029,0.613488797 2.02498632,1.10396541 L2.02498632,6.04892479 L3.94405788,6.04892479 C4.17233785,6.04833153 4.40106483,6.06820569 4.62442754,6.10736077 C6.51578365,6.43943731 7.8887416,8.06600428 7.88814557,9.97466576 L7.88814557,15.5766591 C7.8887416,17.7416083 6.11927387,19.5016585 3.94405788,19.5016585 L1.01277627,19.5016585 C0.948553908,19.5022518 0.886268644,19.4964675 0.825771474,19.4859372 L0.825771474,19.4859372 Z" id="Fill-9" fill="#57585A" mask="url(#mask-2)"></path>
                    </g>
                    <path d="M14.7573161,11.9855754 C14.6501795,11.9671843 14.5387217,11.9582855 14.4274129,11.9572473 C13.3515765,11.9572473 12.5077453,12.7973016 12.5077453,13.8679851 L12.5077453,19.7028325 C12.5077453,20.6329138 13.170681,21.423431 14.0840989,21.5837592 C14.1949607,21.6030401 14.3099947,21.613867 14.4266678,21.613867 C15.4856663,21.613867 16.3457394,20.7564599 16.3463354,19.7025359 L16.3457394,13.8670953 C16.3457394,12.9387937 15.6781844,12.1476833 14.7573161,11.9855754 M13.7336325,23.568951 C11.8503228,23.2383576 10.4833252,21.6126805 10.4833252,19.7025359 L10.4833252,13.8667986 C10.4833252,12.8152476 10.8925006,11.8286584 11.6360496,11.0884199 C12.3800456,10.3490713 13.3703515,9.94194754 14.4266678,9.94194754 C14.6555438,9.94194754 14.8850158,9.96211834 15.1083785,10.0011251 C16.9989896,10.3330533 18.3713515,11.9584338 18.3713515,13.8670953 L18.3707555,19.7031292 C18.3707555,20.7509723 17.9578549,21.7385997 17.2077496,22.4816562 C16.4595813,23.2211531 15.4722556,23.6288701 14.4266678,23.6288701 C14.1949607,23.6300567 13.9605714,23.608996 13.7336325,23.568951" id="Fill-12" fill="#3E3E3E"></path>
                    <path d="M25.2402539,11.9861538 C25.1331173,11.9671695 25.0224045,11.9582706 24.9103506,11.9569358 C23.8339182,11.958419 22.9918751,12.7972867 22.9918751,13.8679703 L22.991279,19.7025211 C22.9918751,20.6323057 23.6540658,21.4234162 24.5676326,21.5831511 C24.6784944,21.602432 24.7935285,21.6129623 24.9103506,21.613259 C25.4175732,21.613259 25.8958882,21.4154072 26.2603613,21.0567823 C26.6272186,20.6962294 26.8288261,20.2142067 26.8294222,19.7028177 L26.8294222,13.8667838 C26.8294222,12.9387789 26.1611221,12.1476685 25.2402539,11.9861538 M24.2165702,23.5686396 C22.3332605,23.2374529 20.9668589,21.6120724 20.9668589,19.7031143 L20.9668589,13.8670804 C20.9668589,11.7027245 22.7357306,9.94089451 24.9097546,9.94089451 C25.1384816,9.94133945 25.3675066,9.96136193 25.5913163,10.0003687 C27.4819274,10.3324452 28.8550343,11.958419 28.8544383,13.8670804 L28.8544383,19.7025211 C28.8544383,20.752144 28.4413886,21.7385849 27.6908363,22.4816413 C26.9432641,23.22099 25.9565344,23.6288553 24.9103506,23.6285587 C24.6773024,23.6288553 24.4435091,23.6083879 24.2165702,23.5686396" id="Fill-14" fill="#3E3E3E"></path>
                    <path d="M32.27679,23.6128522 C31.7895345,23.5275712 31.4499457,23.1197059 31.4499457,22.6201821 L31.4499457,5.11311855 C31.4499457,4.83873641 31.5535061,4.58319024 31.742299,4.39705533 C31.9306449,4.20839907 32.1867893,4.10502375 32.4627518,4.10621026 C32.5220569,4.105617 32.5801699,4.11110465 32.6357498,4.12104173 C33.1225583,4.20647098 33.4755578,4.6232352 33.4755578,5.11371181 L33.4749618,15.4749746 L38.1387572,10.2778803 C38.3741896,10.0209993 38.7242089,9.90561045 39.0752713,9.96760598 C39.2616801,10.0000869 39.4379563,10.0824015 39.584282,10.2050578 C39.9989707,10.584595 40.0275802,11.2173054 39.6546137,11.6222044 L36.1427976,15.5187274 L39.7908068,22.1489864 C39.9216356,22.3751662 39.9536723,22.6409461 39.8797645,22.8948608 C39.8052605,23.1527801 39.6291333,23.3663532 39.3846115,23.4962768 C39.1877722,23.6076611 38.9469756,23.648151 38.7102022,23.6066229 C38.4075673,23.5538229 38.1514229,23.3782183 38.0047992,23.124452 L34.7226042,17.1286831 L33.4755578,18.4989624 L33.4749618,22.6201821 C33.4755578,22.8930811 33.3670802,23.1489239 33.1721779,23.3390633 C32.9796599,23.5263847 32.7278367,23.6288701 32.4627518,23.6288701 C32.3991254,23.6288701 32.3360951,23.6233825 32.27679,23.6128522" id="Fill-16" fill="#3E3E3E"></path>
                    <path d="M76.9475578,23.600542 C75.8203138,23.4031352 74.8861838,22.7514406 74.316527,21.7681143 C74.1864432,21.540303 74.1524694,21.2598399 74.2239931,20.9977679 C74.2959639,20.7351026 74.4612136,20.5196014 74.6883015,20.3904193 C74.889164,20.2765137 75.1302586,20.2352822 75.366883,20.2768103 C75.6695179,20.3302036 75.9261093,20.506698 76.0715409,20.7615026 C76.3384139,21.2125276 76.7542947,21.4999614 77.2737359,21.5916198 C77.8374325,21.680757 78.3507644,21.5265097 78.7714134,21.1640287 C79.1612179,20.8022892 79.3653586,20.2882305 79.3120138,19.7895966 C79.2848943,19.2512144 79.0244287,18.7902524 78.5782993,18.4850208 L75.8499663,16.55782 C74.9571115,15.9359366 74.3922229,14.9429699 74.2995401,13.8352076 C74.2377018,12.7041599 74.6707185,11.6445999 75.4860893,10.9231974 C76.2966917,10.1761364 77.3936872,9.83441941 78.495451,9.985997 L78.496643,9.98659026 C79.6448972,10.1878533 80.5839444,10.8374715 81.1142632,11.7746719 C81.243155,11.9987754 81.2771287,12.2779036 81.2081381,12.5371576 C81.1372104,12.7983398 80.9677885,13.0219983 80.7420417,13.1505871 C80.5410302,13.2653826 80.3006806,13.304686 80.0645032,13.2630096 C79.7618683,13.2102096 79.5039358,13.0343084 79.3588022,12.7803937 C79.1287342,12.3740115 78.7097242,12.0907305 78.209058,12.0027799 C77.6908088,11.9169057 77.2096626,12.0597327 76.8380371,12.4036744 C76.4880178,12.7243307 76.2960957,13.2084298 76.3239602,13.6999446 C76.3498875,14.1764797 76.6194427,14.6395181 77.02683,14.9107856 L79.755312,16.8078785 C80.7003195,17.4754428 81.2765327,18.5115691 81.3364338,19.6519606 C81.4267326,20.7874577 80.9829873,21.8799436 80.1196361,22.6459888 C79.2914507,23.4130723 78.1612264,23.7662095 77.0225088,23.6128522 L76.9475578,23.600542 Z" id="Fill-18" fill="#3E3E3E"></path>
                    <path d="M84.7828205,23.6294337 C84.2967571,23.5435595 83.9437576,23.1257571 83.9437576,22.6351322 L83.9431615,5.12881024 C83.9431615,4.85561462 84.0516392,4.60155159 84.2477335,4.40963241 C84.4401026,4.22334919 84.6914788,4.12071544 84.9565637,4.12071544 C85.021382,4.1213087 85.0824752,4.12649971 85.1429724,4.13732668 C85.6297809,4.2224593 85.9687737,4.63047295 85.9693697,5.12821698 L85.9687737,10.0736213 L87.8884413,10.0736213 C88.1214895,10.0724348 88.3552828,10.0930505 88.5822216,10.1333921 C90.4655313,10.4638372 91.832529,12.0895143 91.8313369,13.9993623 L91.832529,22.6351322 C91.832529,23.2009527 91.3874427,23.6436719 90.8197229,23.6439686 C90.7602688,23.6439686 90.7029008,23.6387776 90.6459798,23.6288405 C90.1597673,23.5435595 89.8075129,23.1257571 89.8075129,22.6346873 L89.8075129,13.998769 C89.8081089,13.0695776 89.1451731,12.2784672 88.2322023,12.118139 C88.1208935,12.0988581 88.0052634,12.0892177 87.8878453,12.0892177 L85.9687737,12.0892177 L85.9687737,22.6358738 C85.9693697,23.2009527 85.5244324,23.6436719 84.9565637,23.6436719 C84.8984506,23.6439686 84.8397415,23.6396674 84.7828205,23.6294337" id="Fill-20" fill="#3E3E3E"></path>
                    <path d="M98.6973038,12.0012226 C98.5888261,11.9822383 98.4793054,11.9728945 98.3660595,11.9723012 C97.8491514,11.9723012 97.3665151,12.169708 97.0057672,12.5281846 C96.6462113,12.8866611 96.4475839,13.367349 96.4469879,13.8824458 L96.4475839,19.7181831 C96.4475839,20.6473745 97.1106687,21.4372984 98.0233415,21.5976266 C98.1349483,21.6172041 98.2492373,21.6283277 98.3660595,21.6280311 C98.872835,21.6277345 99.3527892,21.430476 99.7166662,21.0718511 C100.083523,20.7101116 100.285727,20.2292755 100.285727,19.7175898 L100.285727,13.8821492 C100.285727,12.9538477 99.617427,12.1624406 98.6973038,12.0012226 M97.6730241,23.5826701 C95.7901615,23.2525217 94.4221208,21.6277345 94.4231638,19.7181831 L94.4231638,13.8821492 C94.4221208,11.7172 96.1921845,9.95596328 98.3666555,9.95596328 C98.5949355,9.95596328 98.8242585,9.9753925 99.0471742,10.0151408 C100.938977,10.3469207 102.311339,11.9733394 102.310743,13.8821492 L102.310147,19.7181831 C102.310743,20.7660262 101.897843,21.7524671 101.146545,22.4967101 C100.399569,23.2359104 99.4128393,23.6436274 98.3666555,23.6436274 C98.1336073,23.6439241 97.9005591,23.6227151 97.6730241,23.5826701" id="Fill-22" fill="#3E3E3E"></path>
                    <path d="M117.876829,11.1957701 C117.941796,10.9374059 117.904544,10.6750373 117.772673,10.4568664 C117.634542,10.2287584 117.401494,10.0644258 117.115995,9.99412464 C117.056094,9.98374262 116.993958,9.97840329 116.932567,9.97840329 C116.46945,9.97840329 116.067427,10.2883809 115.954926,10.7322868 C115.9439,10.7758913 114.858378,15.1523605 114.005457,18.4792069 L113.986533,18.5535125 L113.968056,18.4792069 C113.137189,15.1536953 112.02559,10.7807856 112.014415,10.7370328 C111.930076,10.3466686 111.631465,10.0611629 111.235104,9.99145498 C111.174607,9.98062801 111.113514,9.97514037 111.053165,9.97514037 C110.608228,9.97514037 110.222149,10.2796304 110.092214,10.7327317 C110.081485,10.7758913 108.995219,15.1523605 108.141851,18.4792069 L108.122778,18.5535125 L108.104301,18.4792069 C107.274178,15.1523605 106.161984,10.7760396 106.150809,10.7322868 C106.053953,10.3505248 105.743421,10.0604213 105.359875,9.99323476 C105.225023,9.96980104 105.088979,9.97484374 104.956809,10.0076213 C104.425447,10.1408079 104.098673,10.6741474 104.228608,11.1963634 L107.162423,22.8709525 C107.273731,23.2596853 107.578899,23.5431146 107.958124,23.6098562 C108.010128,23.6190517 108.064963,23.6236495 108.121288,23.6236495 C108.599603,23.6236495 108.984639,23.320346 109.081345,22.8685795 C109.09267,22.8240851 110.20546,18.4464293 111.036775,15.1197313 L111.055252,15.0454256 L111.074325,15.119583 C111.935441,18.4780203 113.024688,22.8696177 113.025135,22.8728806 C113.136891,23.2596853 113.442059,23.5431146 113.821134,23.6098562 C113.874926,23.6193483 113.930059,23.6242427 113.985192,23.6245394 C114.462017,23.6242427 114.847798,23.3200493 114.944951,22.867393 L117.876829,11.1957701 Z" id="Fill-24" fill="#3E3E3E"></path>
                </g>
            </g>
        </g>
    </g>
</svg>