<?xml version="1.0" encoding="utf-8"?>
<!-- Generator: Adobe Illustrator 19.0.1, SVG Export Plug-In . SVG Version: 6.00 Build 0)  -->
<!DOCTYPE svg PUBLIC "-//W3C//DTD SVG 1.1//EN" "http://www.w3.org/Graphics/SVG/1.1/DTD/svg11.dtd">
<svg version="1.1" id="Layer_1" xmlns="http://www.w3.org/2000/svg" xmlns:xlink="http://www.w3.org/1999/xlink" x="0px" y="0px"
	 viewBox="0 0 100 100" enable-background="new 0 0 100 100" xml:space="preserve">
<path fill="#D72027" d="M95.1,33L90,24.4l-9.1,4.3L75.9,20l-9.1,4.3l-5.1-8.6L52.6,20l-5.1-8.6l-9.1,4.3L33.4,7l-9.1,4.3L5.1,73.9
	l23.3,7.1c1.6-5,6.3-8.7,11.8-8.7c6.8,0,12.4,5.5,12.4,12.4c0,0.1,0,0.2,0,0.2c0.1,1.1-0.1,2.3-0.4,3.4l23.7,7.3L95.1,33z"/>
<path fill="#FFFFFF" d="M25.1,68.8c-1.2-0.2-2.1-1.2-2.1-2.5l0-30.6c0-1.4,1.1-2.5,2.5-2.5h22.1c0.6,0,1.2,0.1,1.7,0.2
	c4.8,0.8,8.2,5,8.2,9.8v23.2c0,0.7-0.3,1.3-0.8,1.8c-0.5,0.5-1.1,0.7-1.8,0.7c-0.2,0-0.3,0-0.5,0c-1.2-0.2-2.1-1.2-2.1-2.5V43
	c0-2.3-1.7-4.3-4-4.8c-0.3,0-0.5-0.1-0.8-0.1h-4.8v28.1c0,0.7-0.3,1.3-0.8,1.8c-0.5,0.5-1.1,0.7-1.8,0.7c-0.2,0-0.3,0-0.5,0
	c-1.2-0.2-2.1-1.2-2.1-2.5V38.2l-9.7,0v28.1c0,0.7-0.3,1.3-0.8,1.8c-0.5,0.5-1.1,0.7-1.8,0.7C25.4,68.8,25.3,68.8,25.1,68.8"/>
<path fill="#FFFFFF" d="M61.9,82.1c-1.2-0.2-2.1-1.2-2.1-2.5c0-0.7,0.3-1.3,0.7-1.8c0.5-0.5,1.1-0.7,1.8-0.7c2.1,0,4-1.4,4.6-3.4
	l2.6-8.8L61,36.1c-0.4-1.3,0.3-2.8,1.7-3.2c0.4-0.1,0.8-0.1,1.1-0.1c0.9,0.2,1.7,0.8,2,1.7L72.3,56l6.5-21.4c0.3-1.2,1.6-2,2.9-1.7
	l0.2,0c1.4,0.4,2.1,1.9,1.7,3.2l-8.9,29.5L71.9,75c-0.7,2.2-2,3.9-3.6,5.1c-1.8,1.3-3.8,2-6,2C62.2,82.1,62,82.1,61.9,82.1"/>
</svg>
